<?xml version="1.0" encoding="UTF-8"?>
<svg baseProfile="tiny" height="457" version="1.2" viewBox="0 0 615 457" width="615" xmlns="http://www.w3.org/2000/svg">
  <path d="M-401,-342.91666666666674 L-401,0" fill="none" stroke="black" stroke-width="1" transform="translate(534.5 390.5)"/>
  <rect fill="white" height="32" stroke="black" stroke-width="1" width="77" x="95.5" y="15.5"/>
  <text fill="black" font-family="sans-serif" font-size="13.333333333333334" x="106.80338541666669" y="36.635416666666536">
    browser  </text>
  <rect fill="white" height="32" stroke="black" stroke-width="1" width="77" x="95.5" y="390.5"/>
  <text fill="black" font-family="sans-serif" font-size="13.333333333333334" x="106.80338541666669" y="411.59375">
    browser  </text>
  <path d="M33,-342.91666666666674 L33,0" fill="none" stroke="black" stroke-width="1" transform="translate(534.5 390.5)"/>
  <rect fill="white" height="32" stroke="black" stroke-width="1" width="65" x="534.5" y="15.5"/>
  <text fill="black" font-family="sans-serif" font-size="13.333333333333334" x="546.00390625" y="36.635416666666536">
    server  </text>
  <rect fill="white" height="32" stroke="black" stroke-width="1" width="65" x="534.5" y="390.5"/>
  <text fill="black" font-family="sans-serif" font-size="13.333333333333334" x="546.00390625" y="411.59375">
    server  </text>
  <rect fill="white" height="15.333333333333314" width="328.4375" x="186.146484375" y="60.91666666666657"/>
  <text fill="black" font-family="sans-serif" font-size="13.333333333333334" x="186.146484375" y="74.2499999999999">
    GET https://studies.cs.helsinki.fi/exampleapp/spa  </text>
  <path d="M-400.376953125,-313 L32.107421875,-313" fill="none" stroke="black" stroke-width="1" transform="translate(534.5 390.5)"/>
  <path d="M32,-313 L32,-313 L24,-321 L24,-313 L24,-305 L32,-313" fill="black" stroke="black" stroke-width="1" transform="translate(534.5 390.5)"/>
  <rect fill="white" height="15.333333333333314" width="37.102864583333314" x="331.8138020833333" y="90.77083333333326"/>
  <text fill="black" font-family="sans-serif" font-size="13.333333333333334" x="331.8138020833333" y="104.10416666666659">
    HTML  </text>
  <path d="M-400.376953125,-283 L32.107421875,-283" fill="none" stroke="black" stroke-width="1" transform="translate(534.5 390.5)"/>
  <path d="M-400,-283 L-400,-283 L-392,-291 L-392,-283 L-392,-275 L-400,-283" fill="black" stroke="black" stroke-width="1" transform="translate(534.5 390.5)"/>
  <rect fill="white" height="15.333333333333343" width="363.6328125" x="168.548828125" y="120.62499999999994"/>
  <text fill="black" font-family="sans-serif" font-size="13.333333333333334" x="168.548828125" y="133.9583333333333">
    GET https://studies.cs.helsinki.fi/exampleapp/main.css  </text>
  <path d="M-400.376953125,-253 L32.107421875,-253" fill="none" stroke="black" stroke-width="1" transform="translate(534.5 390.5)"/>
  <path d="M32,-253 L32,-253 L24,-261 L24,-253 L24,-245 L32,-253" fill="black" stroke="black" stroke-width="1" transform="translate(534.5 390.5)"/>
  <rect fill="white" height="15.333333333333343" width="58.776041666666686" x="320.97721354166663" y="150.47916666666663"/>
  <text fill="black" font-family="sans-serif" font-size="13.333333333333334" x="320.97721354166663" y="163.81249999999997">
    main.css  </text>
  <path d="M-400.376953125,-224 L32.107421875,-224" fill="none" stroke="black" stroke-width="1" transform="translate(534.5 390.5)"/>
  <path d="M-400,-224 L-400,-224 L-392,-232 L-392,-224 L-392,-216 L-400,-224" fill="black" stroke="black" stroke-width="1" transform="translate(534.5 390.5)"/>
  <rect fill="white" height="15.333333333333343" width="353.0598958333334" x="173.83528645833331" y="180.3333333333333"/>
  <text fill="black" font-family="sans-serif" font-size="13.333333333333334" x="173.83528645833331" y="193.66666666666663">
    GET https://studies.cs.helsinki.fi/exampleapp/main.js  </text>
  <path d="M-400.376953125,-194 L32.107421875,-194" fill="none" stroke="black" stroke-width="1" transform="translate(534.5 390.5)"/>
  <path d="M32,-194 L32,-194 L24,-202 L24,-194 L24,-186 L32,-194" fill="black" stroke="black" stroke-width="1" transform="translate(534.5 390.5)"/>
  <rect fill="white" height="15.333333333333343" width="48.203125" x="326.263671875" y="210.18749999999994"/>
  <text fill="black" font-family="sans-serif" font-size="13.333333333333334" x="326.263671875" y="223.5208333333333">
    main.js  </text>
  <path d="M-400.376953125,-164 L32.107421875,-164" fill="none" stroke="black" stroke-width="1" transform="translate(534.5 390.5)"/>
  <path d="M-400,-164 L-400,-164 L-392,-172 L-392,-164 L-392,-156 L-400,-164" fill="black" stroke="black" stroke-width="1" transform="translate(534.5 390.5)"/>
  <path d="M-524,-150 L-524,-150 L-285,-150 L-277,-142 L-277,-118 L-524,-118 L-524,-150" fill="white" stroke="black" stroke-width="1" transform="translate(534.5 390.5)"/>
  <path d="M-285.49153645833326,-150.45833333333337 L-285.49153645833326,-142.45833333333337 L-277.49153645833326,-142.45833333333337" fill="none" stroke="black" stroke-width="1" transform="translate(534.5 390.5)"/>
  <text fill="black" font-family="sans-serif" font-size="13.333333333333334" x="15.989583333333371" y="261.13541666666663">
    browser starts execution of main.js  </text>
  <rect fill="white" height="15.333333333333371" width="404.98046875" x="147.875" y="285.41666666666663"/>
  <text fill="black" font-family="sans-serif" font-size="13.333333333333334" x="147.875" y="298.74999999999994">
    HTTP GET https://studies.cs.helsinki.fi/exampleapp/data.json  </text>
  <path d="M-400.376953125,-89 L32.107421875,-89" fill="none" stroke="black" stroke-width="1" transform="translate(534.5 390.5)"/>
  <path d="M32,-89 L32,-89 L24,-97 L24,-89 L24,-81 L32,-89" fill="black" stroke="black" stroke-width="1" transform="translate(534.5 390.5)"/>
  <rect fill="white" height="15.333333333333314" width="77.89713541666669" x="311.41666666666663" y="315.2708333333333"/>
  <text fill="black" font-family="sans-serif" font-size="13.333333333333334" x="311.41666666666663" y="328.60416666666663">
    list of notes  </text>
  <path d="M-400.376953125,-59 L32.107421875,-59" fill="none" stroke="black" stroke-width="1" transform="translate(534.5 390.5)"/>
  <path d="M-400,-59 L-400,-59 L-392,-67 L-392,-59 L-392,-51 L-400,-59" fill="black" stroke="black" stroke-width="1" transform="translate(534.5 390.5)"/>
  <path d="M-482,-45 L-482,-45 L-328,-45 L-320,-37 L-320,-13 L-482,-13 L-482,-45" fill="white" stroke="black" stroke-width="1" transform="translate(534.5 390.5)"/>
  <path d="M-327.958984375,-45.375 L-327.958984375,-37.375 L-319.958984375,-37.375" fill="none" stroke="black" stroke-width="1" transform="translate(534.5 390.5)"/>
  <text fill="black" font-family="sans-serif" font-size="13.333333333333334" x="58.45703125" y="366.21874999999994">
    browser renders notes  </text>
  <text fill="black" font-family="Arial" font-size="14" x="396.70052083333337" y="447.5416666666666">
    www.websequencediagrams.com  </text>
</svg>
