<?xml version="1.0" encoding="UTF-8"?>
<svg baseProfile="tiny" height="277" version="1.2" viewBox="0 0 724 277" width="724" xmlns="http://www.w3.org/2000/svg">
  <path d="M-404,-163.79166666666669 L-404,0" fill="none" stroke="black" stroke-width="1" transform="translate(552.5 211.5)"/>
  <rect fill="white" height="32" stroke="black" stroke-width="1" width="77" x="110.5" y="15.5"/>
  <text fill="black" font-family="sans-serif" font-size="13.333333333333334" x="122.17317708333326" y="36.76041666666659">
    browser  </text>
  <rect fill="white" height="32" stroke="black" stroke-width="1" width="77" x="110.5" y="211.5"/>
  <text fill="black" font-family="sans-serif" font-size="13.333333333333334" x="122.17317708333326" y="232.59375">
    browser  </text>
  <path d="M33,-163.79166666666669 L33,0" fill="none" stroke="black" stroke-width="1" transform="translate(552.5 211.5)"/>
  <rect fill="white" height="32" stroke="black" stroke-width="1" width="65" x="552.5" y="15.5"/>
  <text fill="black" font-family="sans-serif" font-size="13.333333333333334" x="564.00390625" y="36.76041666666659">
    server  </text>
  <rect fill="white" height="32" stroke="black" stroke-width="1" width="65" x="552.5" y="211.5"/>
  <text fill="black" font-family="sans-serif" font-size="13.333333333333334" x="564.00390625" y="232.59375">
    server  </text>
  <rect fill="white" height="15.333333333333343" width="407.61067708333337" x="163.24479166666663" y="61.04166666666663"/>
  <text fill="black" font-family="sans-serif" font-size="13.333333333333334" x="163.24479166666663" y="74.37499999999996">
    POST https://studies.cs.helsinki.fi/exampleapp/new_note_spa  </text>
  <path d="M-403.00716145833337,-134 L32.107421875,-134" fill="none" stroke="black" stroke-width="1" transform="translate(552.5 211.5)"/>
  <path d="M32,-134 L32,-134 L24,-142 L24,-134 L24,-126 L32,-134" fill="black" stroke="black" stroke-width="1" transform="translate(552.5 211.5)"/>
  <path d="M-95,-121 L-95,-121 L153,-121 L161,-113 L161,-89 L-95,-89 L-95,-121" fill="white" stroke="black" stroke-width="1" transform="translate(552.5 211.5)"/>
  <path d="M152.52083333333326,-120.6041666666667 L152.52083333333326,-112.6041666666667 L160.52083333333326,-112.6041666666667" fill="none" stroke="black" stroke-width="1" transform="translate(552.5 211.5)"/>
  <text fill="black" font-family="sans-serif" font-size="13.333333333333334" x="462.94596354166663" y="111.9895833333333">
    server adds new note to list of notes  </text>
  <rect fill="white" height="15.333333333333343" width="191.26953125" x="271.4153645833333" y="136.27083333333331"/>
  <text fill="black" font-family="sans-serif" font-size="13.333333333333334" x="271.4153645833333" y="149.60416666666666">
    {&#34;message&#34;:&#34;note created&#34;}  </text>
  <path d="M-403.00716145833337,-59 L32.107421875,-59" fill="none" stroke="black" stroke-width="1" transform="translate(552.5 211.5)"/>
  <path d="M-403,-59 L-403,-59 L-395,-67 L-395,-59 L-395,-51 L-403,-59" fill="black" stroke="black" stroke-width="1" transform="translate(552.5 211.5)"/>
  <path d="M-542,-45 L-542,-45 L-273,-45 L-265,-37 L-265,-13 L-542,-13 L-542,-45" fill="white" stroke="black" stroke-width="1" transform="translate(552.5 211.5)"/>
  <path d="M-272.53255208333337,-45.375 L-272.53255208333337,-37.375 L-264.53255208333337,-37.375" fill="none" stroke="black" stroke-width="1" transform="translate(552.5 211.5)"/>
  <text fill="black" font-family="sans-serif" font-size="13.333333333333334" x="15.770182291666629" y="187.21875">
    browser adds new note to existing ones  </text>
  <text fill="black" font-family="Arial" font-size="14" x="505.48111979166663" y="267.66666666666663">
    www.websequencediagrams.com  </text>
</svg>
